name rise43.5482peak65.4966fall89.1036.mot
datacolumns 19
datarows 32
range 19.71825400000000 19.76993200000000
endheader
time	ground_force1_vx	ground_force1_vy	ground_force1_vz	ground_force1_px	ground_force1_py	ground_force1_pz	ground_force2_vx	ground_force2_vy	ground_force2_vz	ground_force2_px	ground_force2_py	ground_force2_pz	ground_torque1_x	ground_torque1_y	ground_torque1_z	ground_torque2_x	ground_torque2_y	ground_torque2_z	
19.71825400000000	-67.89455300000000	820.91434400000003	51.40238700000000	0.07274700000000	0.00000000000000	0.11227100000000	-4.77818700000000	19.88031800000000	6.24453200000000	0.00000000000000	0.00000000000000	0.00000000000000	0.00000000000000	19.80233800000000	0.00000000000000	0.00000000000000	2.15948700000000	0.00000000000000	
19.71992900000000	-68.53872699999999	818.92997600000001	51.25121500000000	0.07195900000000	0.00000000000000	0.11230300000000	-5.79726400000000	25.00023900000000	7.67708700000000	0.34041900000000	0.00000000000000	-0.03592200000000	0.00000000000000	19.81141800000000	0.00000000000000	0.00000000000000	5.06787000000000	0.00000000000000	
19.72158900000000	-69.18652100000000	816.83051799999998	51.08227500000000	0.07117200000000	0.00000000000000	0.11233400000000	-6.79665200000000	30.35245100000000	9.11878800000000	0.34255200000000	0.00000000000000	-0.03643500000000	0.00000000000000	19.82028600000000	0.00000000000000	0.00000000000000	6.04770400000000	0.00000000000000	
19.72325800000000	-69.83772300000000	814.61550199999999	50.89530200000000	0.07038600000000	0.00000000000000	0.11236100000000	-7.73994900000000	35.81332900000000	10.52468800000000	0.34450900000000	0.00000000000000	-0.03693600000000	0.00000000000000	19.82892500000000	0.00000000000000	0.00000000000000	7.01101500000000	0.00000000000000	
19.72492000000000	-70.49208000000000	812.28447000000006	50.69004600000000	0.06960300000000	0.00000000000000	0.11238600000000	-8.59419900000000	41.26583200000000	11.85336100000000	0.34631000000000	0.00000000000000	-0.03742800000000	0.00000000000000	19.83731100000000	0.00000000000000	0.00000000000000	7.92984300000000	0.00000000000000	
19.72658600000000	-71.14929800000000	809.83697199999995	50.46626900000000	0.06882000000000	0.00000000000000	0.11240800000000	-9.33205900000000	46.60816700000000	13.06970500000000	0.34797400000000	0.00000000000000	-0.03791100000000	0.00000000000000	19.84541300000000	0.00000000000000	0.00000000000000	8.78021700000000	0.00000000000000	
19.72825600000000	-71.80903600000001	807.27256100000000	50.22375100000000	0.06804000000000	0.00000000000000	0.11242700000000	-9.93327400000000	51.76017400000000	14.14691400000000	0.34951500000000	0.00000000000000	-0.03838600000000	0.00000000000000	19.85319100000000	0.00000000000000	0.00000000000000	9.54353500000000	0.00000000000000	
19.72991700000000	-72.47090799999999	804.59079399999996	49.96228800000000	0.06726100000000	0.00000000000000	0.11244300000000	-10.38537200000000	56.66706500000000	15.06750100000000	0.35094800000000	0.00000000000000	-0.03885300000000	0.00000000000000	19.86059900000000	0.00000000000000	0.00000000000000	10.20732300000000	0.00000000000000	
19.73159000000000	-73.13448099999999	801.79122400000006	49.68169200000000	0.06648300000000	0.00000000000000	0.11245500000000	-10.68361100000000	61.30049000000000	15.82340100000000	0.35228400000000	0.00000000000000	-0.03931400000000	0.00000000000000	19.86758500000000	0.00000000000000	0.00000000000000	10.76536900000000	0.00000000000000	
19.73324900000000	-73.79927600000001	798.87340600000005	49.38179400000000	0.06570700000000	0.00000000000000	0.11246400000000	-10.83031100000000	65.65726500000000	16.41528700000000	0.35353200000000	0.00000000000000	-0.03976800000000	0.00000000000000	19.87408500000000	0.00000000000000	0.00000000000000	11.21733000000000	0.00000000000000	
19.73493200000000	-74.46476300000000	795.83688700000005	49.06244600000000	0.06493300000000	0.00000000000000	0.11247000000000	-10.83370800000000	69.75624100000000	16.85128100000000	0.35470200000000	0.00000000000000	-0.04021600000000	0.00000000000000	19.88003000000000	0.00000000000000	0.00000000000000	11.56791000000000	0.00000000000000	
19.73658800000000	-75.13036400000000	792.68121099999996	48.72351800000000	0.06416000000000	0.00000000000000	0.11247200000000	-10.70652400000000	73.63389400000000	17.14527800000000	0.35580200000000	0.00000000000000	-0.04065900000000	0.00000000000000	19.88534200000000	0.00000000000000	0.00000000000000	11.82577600000000	0.00000000000000	
19.73825600000000	-75.79545100000000	789.40591400000005	48.36490200000000	0.06338800000000	0.00000000000000	0.11247000000000	-10.46440800000000	77.33922200000001	17.31507700000000	0.35683700000000	0.00000000000000	-0.04109500000000	0.00000000000000	19.88993600000000	0.00000000000000	0.00000000000000	12.00232400000000	0.00000000000000	
19.73993400000000	-76.45934200000001	786.01052600000003	47.98651300000000	0.06261800000000	0.00000000000000	0.11246400000000	-10.12440600000000	80.92850400000000	17.38052200000000	0.35781300000000	0.00000000000000	-0.04152600000000	0.00000000000000	19.89371500000000	0.00000000000000	0.00000000000000	12.11044200000000	0.00000000000000	
19.74158400000000	-77.12130800000000	782.49457199999995	47.58828900000000	0.06185000000000	0.00000000000000	0.11245400000000	-9.70357500000000	84.46035000000001	17.36179000000000	0.35873600000000	0.00000000000000	-0.04195200000000	0.00000000000000	19.89657700000000	0.00000000000000	0.00000000000000	12.16336000000000	0.00000000000000	
19.74325700000000	-77.78056700000000	778.85756700000002	47.17019100000000	0.06108300000000	0.00000000000000	0.11243900000000	-9.21783300000000	87.99139900000000	17.27794500000000	0.35961000000000	0.00000000000000	-0.04237200000000	0.00000000000000	19.89841100000000	0.00000000000000	0.00000000000000	12.17367100000000	0.00000000000000	
19.74493500000000	-78.43628500000000	775.09902599999998	46.73220800000000	0.06031800000000	0.00000000000000	0.11242100000000	-8.68108800000000	91.57289600000000	17.14582100000000	0.36043900000000	0.00000000000000	-0.04278700000000	0.00000000000000	19.89909700000000	0.00000000000000	0.00000000000000	12.15256300000000	0.00000000000000	
19.74658900000000	-79.08757500000000	771.21845499999995	46.27435200000000	0.05955400000000	0.00000000000000	0.11239800000000	-8.10466400000000	95.24823800000000	16.97926800000000	0.36122500000000	0.00000000000000	-0.04319600000000	0.00000000000000	19.89850700000000	0.00000000000000	0.00000000000000	12.10929900000000	0.00000000000000	
19.74825800000000	-79.73350100000000	767.21536300000002	45.79666500000000	0.05879200000000	0.00000000000000	0.11237100000000	-7.49702900000000	99.05153000000000	16.78874800000000	0.36197100000000	0.00000000000000	-0.04360000000000	0.00000000000000	19.89650400000000	0.00000000000000	0.00000000000000	12.05092500000000	0.00000000000000	
19.74991600000000	-80.37307500000000	763.08925599999998	45.29921600000000	0.05803100000000	0.00000000000000	0.11233900000000	-6.86376700000000	103.00705900000000	16.58125800000000	0.36268000000000	0.00000000000000	-0.04399800000000	0.00000000000000	19.89294400000000	0.00000000000000	0.00000000000000	11.98219800000000	0.00000000000000	
19.75158400000000	-81.00525900000000	758.83964600000002	44.78210300000000	0.05727200000000	0.00000000000000	0.11230200000000	-6.20778200000000	107.12956699999999	16.36051900000000	0.36335500000000	0.00000000000000	-0.04439100000000	0.00000000000000	19.88767600000000	0.00000000000000	0.00000000000000	11.90570000000000	0.00000000000000	
19.75325600000000	-81.62896499999999	754.46605000000000	44.24545500000000	0.05651400000000	0.00000000000000	0.11226100000000	-5.52965100000000	111.42516300000000	16.12737400000000	0.36399500000000	0.00000000000000	-0.04477700000000	0.00000000000000	19.88053800000000	0.00000000000000	0.00000000000000	11.82208700000000	0.00000000000000	
19.75491600000000	-82.24305500000000	749.96799499999997	43.68943200000000	0.05575800000000	0.00000000000000	0.11221500000000	-4.82808700000000	115.89266900000000	15.88032500000000	0.36460400000000	0.00000000000000	-0.04515800000000	0.00000000000000	19.87136500000000	0.00000000000000	0.00000000000000	11.73043700000000	0.00000000000000	
19.75659200000000	-82.84634600000000	745.34502199999997	43.11422400000000	0.05500300000000	0.00000000000000	0.11216400000000	-4.10045000000000	120.52523800000000	15.61613700000000	0.36518300000000	0.00000000000000	-0.04553200000000	0.00000000000000	19.85998200000000	0.00000000000000	0.00000000000000	11.62865500000000	0.00000000000000	
19.75825700000000	-83.43760700000000	740.59669099999996	42.52005600000000	0.05425000000000	0.00000000000000	0.11210800000000	-3.34326700000000	125.31206299999999	15.33047100000000	0.36573100000000	0.00000000000000	-0.04590000000000	0.00000000000000	19.84620800000000	0.00000000000000	0.00000000000000	11.51388800000000	0.00000000000000	
19.75992900000000	-84.01556300000000	735.72258399999998	41.90718600000000	0.05349700000000	0.00000000000000	0.11204700000000	-2.55271300000000	130.24003300000001	15.01846500000000	0.36625100000000	0.00000000000000	-0.04626100000000	0.00000000000000	19.82985700000000	0.00000000000000	0.00000000000000	11.38291400000000	0.00000000000000	
19.76158900000000	-84.57889800000000	730.72230900000000	41.27590700000000	0.05274600000000	0.00000000000000	0.11198000000000	-1.72502600000000	135.29522600000001	14.67526000000000	0.36674300000000	0.00000000000000	-0.04661600000000	0.00000000000000	19.81073500000000	0.00000000000000	0.00000000000000	11.23249500000000	0.00000000000000	
19.76325000000000	-85.12625500000000	725.59550700000000	40.62654500000000	0.05199500000000	0.00000000000000	0.11190900000000	-0.85684500000000	140.46415600000000	14.29641800000000	0.36720800000000	0.00000000000000	-0.04696300000000	0.00000000000000	19.78864500000000	0.00000000000000	0.00000000000000	11.05966200000000	0.00000000000000	
19.76492100000000	-85.65623700000000	720.34185600000001	39.95946500000000	0.05124600000000	0.00000000000000	0.11183300000000	0.05454900000000	145.73473799999999	13.87824100000000	0.36764600000000	0.00000000000000	-0.04730400000000	0.00000000000000	19.76338400000000	0.00000000000000	0.00000000000000	10.86193000000000	0.00000000000000	
19.76658900000000	-86.16741600000000	714.96107700000005	39.27506700000000	0.05049700000000	0.00000000000000	0.11175200000000	1.01108100000000	151.09694300000001	13.41797200000000	0.36805800000000	0.00000000000000	-0.04763700000000	0.00000000000000	19.73474500000000	0.00000000000000	0.00000000000000	10.63743700000000	0.00000000000000	
19.76825600000000	-86.65832899999999	709.45293800000002	38.57378600000000	0.04974900000000	0.00000000000000	0.11166500000000	2.01381300000000	156.54316299999999	12.91389700000000	0.36844400000000	0.00000000000000	-0.04796200000000	0.00000000000000	19.70251800000000	0.00000000000000	0.00000000000000	10.38501600000000	0.00000000000000	
19.76993200000000	-87.12748400000000	703.81726200000003	37.85609800000000	0.04900200000000	0.00000000000000	0.11157300000000	3.06295000000000	162.06831299999999	12.36535000000000	0.36880400000000	0.00000000000000	-0.04828000000000	0.00000000000000	19.66648800000000	0.00000000000000	0.00000000000000	10.10420200000000	0.00000000000000	
